<?xml version="1.0" encoding="UTF-8"?>
<svg id="Layer_2" data-name="Layer 2" xmlns="http://www.w3.org/2000/svg" viewBox="0 0 145.44 139.82">
  <defs>
    <style>
      .cls-1 {
        fill: #fff;
      }

      .cls-2 {
        fill: #f90100;
      }
    </style>
  </defs>
  <g id="Logo_1_Text" data-name="Logo 1 Text">
    <g>
      <g>
        <path class="cls-1" d="m0,84.8c3.17-.65,7.7-1.01,12.02-1.01,6.7,0,11.02,1.22,14.04,3.96,2.45,2.16,3.82,5.47,3.82,9.22,0,6.41-4.03,10.66-9.14,12.38v.22c3.74,1.3,5.98,4.75,7.13,9.79,1.58,6.77,2.74,11.45,3.74,13.32h-6.48c-.79-1.37-1.87-5.54-3.24-11.59-1.44-6.7-4.03-9.22-9.72-9.43h-5.9v21.03H0v-47.88Zm6.26,22.11h6.41c6.7,0,10.94-3.67,10.94-9.22,0-6.26-4.54-9-11.16-9.07-3.02,0-5.18.29-6.19.58v17.71Z"/>
        <path class="cls-1" d="m42.34,116.41c.14,8.57,5.62,12.1,11.95,12.1,4.54,0,7.27-.79,9.65-1.8l1.08,4.54c-2.23,1.01-6.05,2.16-11.59,2.16-10.73,0-17.14-7.06-17.14-17.57s6.19-18.79,16.35-18.79c11.38,0,14.4,10.01,14.4,16.42,0,1.3-.14,2.3-.22,2.95h-24.48Zm18.58-4.54c.07-4.03-1.66-10.3-8.78-10.3-6.41,0-9.22,5.9-9.72,10.3h18.51Z"/>
        <path class="cls-1" d="m74.01,126.21c1.87,1.22,5.18,2.52,8.35,2.52,4.61,0,6.77-2.3,6.77-5.18,0-3.02-1.8-4.68-6.48-6.41-6.26-2.23-9.22-5.69-9.22-9.86,0-5.62,4.54-10.23,12.02-10.23,3.53,0,6.62,1.01,8.57,2.16l-1.58,4.61c-1.37-.86-3.89-2.02-7.13-2.02-3.74,0-5.83,2.16-5.83,4.75,0,2.88,2.09,4.18,6.62,5.9,6.05,2.3,9.15,5.33,9.15,10.51,0,6.12-4.75,10.44-13.03,10.44-3.82,0-7.34-.94-9.79-2.38l1.58-4.82Z"/>
        <path class="cls-1" d="m143.64,139.82c-6.55-1.73-12.96-3.67-18.58-5.62-1.01-.36-2.02-.72-2.95-.72-11.52-.43-21.39-8.93-21.39-24.55s9.5-25.56,22.61-25.56,21.75,10.22,21.75,24.55c0,12.46-5.76,20.45-13.83,23.26v.29c4.82,1.22,10.08,2.38,14.19,3.1l-1.8,5.26Zm-5.18-31.61c0-9.72-5.04-19.73-15.34-19.73s-15.77,9.79-15.7,20.31c-.07,10.3,5.62,19.59,15.41,19.59s15.62-9.07,15.62-20.16Z"/>
      </g>
      <path class="cls-2" d="m95.23,57.11c2.45,8.74,4.91,17.48,7.37,26.22.11.4-.44.64-.65.28-4.32-7.36-8.65-14.72-12.97-22.08-4.12-7.02-8.25-14.04-12.37-21.05-.15-.26.06-.58.36-.53,2.57.36,5.13.73,7.7,1.09.3.04.51-.29.35-.54-3.27-5.2-6.55-10.41-9.82-15.61-.15-.23-.49-.22-.62.02-3.16,5.9-6.32,11.8-9.48,17.69-.13.25-.48.25-.62.01-1.07-1.82-2.15-3.64-3.22-5.46-.15-.25-.52-.23-.64.04-3.02,7.07-6.04,14.14-9.06,21.2l-.67.14c-2.6-2.4-11.87-11.72-11.69-25.29C39.4,17.05,52.99,0,72.43,0c18.36,0,33.24,14.88,33.24,33.25,0,9.67-4.22,17.74-10.35,23.51-.1.09-.14.23-.1.36Z"/>
    </g>
  </g>
</svg>